<svg preserveAspectRatio="xMidYMid meet" width="100%" height="100%" overflow="visible" style="display: block;" viewBox="0 0 69.9908 66.6963" fill="none" xmlns="http://www.w3.org/2000/svg">
<g id="Group 10">
<path id="Vector" d="M22.4477 66.6422C34.7724 66.672 44.7341 54.0612 44.6977 38.4751C44.6613 22.8889 34.6407 10.2297 22.3159 10.1998C9.99118 10.1699 0.0294988 22.7808 0.0658844 38.3669C0.10227 53.953 10.1229 66.6123 22.4477 66.6422Z" fill="var(--fill-0, #EF430F)"/>
<path id="Vector_2" d="M47.6749 66.6422C59.9996 66.6721 69.9613 54.0613 69.9249 38.4751C69.8885 22.889 59.8678 10.2297 47.5431 10.1998C35.2183 10.17 25.2567 22.7808 25.2931 38.3669C25.3294 53.9531 35.3501 66.6123 47.6749 66.6422Z" fill="var(--fill-0, #EF430F)"/>
<path id="Vector_3" d="M29.2165 10.2713L29.1924 0.0169111L34.9771 6.73568L40.7304 0.0450897L40.7545 10.2995L47.6781 10.3164L41.9231 16.6131L44.6307 22.9295L38.4719 20.9431L34.6448 28.8219L31.5492 20.9262L25.3987 22.4886L27.303 14.4081L22.2928 9.86048L29.2165 10.2713Z" fill="var(--fill-0, #43934E)"/>
<path id="Vector_4" d="M15.128 28.8798C17.1452 28.8847 18.7766 27.2456 18.7718 25.2187C18.767 23.1918 17.1279 21.5446 15.1107 21.5397C13.0935 21.5347 11.4621 23.1739 11.4669 25.2008C11.4717 27.2277 13.1108 28.8748 15.128 28.8798Z" fill="var(--fill-0, white)"/>
</g>
</svg>
