<svg xmlns="http://www.w3.org/2000/svg" width="1200" height="250" viewBox="0 0 1200 250" fill="none" role="img" aria-label="Business insight">
  <defs>
    <linearGradient id="bg" x1="0" y1="0" x2="1200" y2="250" gradientUnits="userSpaceOnUse">
      <stop stop-color="#0B3D12"/>
      <stop offset="0.55" stop-color="#19B820"/>
      <stop offset="1" stop-color="#0F5C18"/>
    </linearGradient>
    <linearGradient id="glow" x1="900" y1="0" x2="1200" y2="250" gradientUnits="userSpaceOnUse">
      <stop stop-color="#86EFAC" stop-opacity="0.35"/>
      <stop offset="1" stop-color="#86EFAC" stop-opacity="0"/>
    </linearGradient>
  </defs>
  <rect width="1200" height="250" fill="url(#bg)"/>
  <rect width="1200" height="250" fill="url(#glow)"/>
  <circle cx="1020" cy="60" r="120" fill="#FFFFFF" fill-opacity="0.06"/>
  <circle cx="1100" cy="200" r="90" fill="#FFFFFF" fill-opacity="0.05"/>
  <path d="M720 170 L760 120 L800 145 L840 95 L880 130 L920 80 L960 110 L1000 60" stroke="#FFFFFF" stroke-opacity="0.25" stroke-width="3" stroke-linecap="round" stroke-linejoin="round" fill="none"/>
  <path d="M720 190 L760 165 L800 175 L840 150 L880 170 L920 145 L960 160 L1000 130" stroke="#BBF7D0" stroke-opacity="0.5" stroke-width="2" stroke-linecap="round" fill="none"/>
  <text x="64" y="108" fill="#FFFFFF" font-family="system-ui, -apple-system, Segoe UI, sans-serif" font-size="40" font-weight="700">Business insight</text>
  <text x="64" y="148" fill="#DCFCE7" font-family="system-ui, -apple-system, Segoe UI, sans-serif" font-size="20" font-weight="500">Spending trends, branch reports &amp; product breakdown</text>
  <rect x="64" y="172" width="148" height="36" rx="18" fill="#FFFFFF" fill-opacity="0.18"/>
  <text x="88" y="196" fill="#FFFFFF" font-family="system-ui, -apple-system, Segoe UI, sans-serif" font-size="15" font-weight="600">View reports</text>
</svg>
